<svg width="652.901" height="94.6" viewBox="0 0 652.901 94.6" xmlns="http://www.w3.org/2000/svg"><g id="svgGroup" stroke-linecap="round" fill-rule="evenodd" font-size="9pt" stroke="#000" stroke-width="0.25mm" fill="black" style="stroke:#000;stroke-width:0.25mm;fill:black"><path d="M 22.7 66.6 Q 18.5 66.6 14.5 65.9 A 27.646 27.646 0 0 1 9.331 64.488 A 24.117 24.117 0 0 1 7.2 63.55 Q 3.9 61.9 1.95 58.95 Q 0 56 0 51.4 A 17.297 17.297 0 0 1 0.444 47.389 A 12.936 12.936 0 0 1 2.4 42.95 Q 4.8 39.5 8.7 37.35 A 36.828 36.828 0 0 1 16.867 34.076 A 40.689 40.689 0 0 1 17.15 34 A 69.731 69.731 0 0 1 24.823 32.418 A 62.888 62.888 0 0 1 26.05 32.25 A 105.725 105.725 0 0 1 29.165 31.901 Q 30.865 31.737 32.371 31.656 A 57.232 57.232 0 0 1 33.7 31.6 Q 30.7 28.1 28.3 22.8 A 28.058 28.058 0 0 1 26.463 17.414 A 22.25 22.25 0 0 1 25.9 12.5 Q 25.9 10.7 26.3 9 Q 26.7 7.3 27.6 5.8 A 7.133 7.133 0 0 1 29.198 3.868 A 9.993 9.993 0 0 1 30.8 2.75 Q 33 1.5 35.6 0.8 A 21.759 21.759 0 0 1 38.025 0.286 A 16.024 16.024 0 0 1 40.4 0.1 A 11.521 11.521 0 0 1 43.167 0.416 A 8.405 8.405 0 0 1 46.5 2.05 Q 48.9 4 51 6 A 17.556 17.556 0 0 0 51.411 6.396 Q 51.782 6.744 52.25 7.15 Q 53 7.8 53.9 8.1 A 4.909 4.909 0 0 0 54.272 8.177 Q 54.468 8.21 54.692 8.234 A 9.08 9.08 0 0 0 54.85 8.25 A 1.974 1.974 0 0 1 55.414 8.382 A 1.706 1.706 0 0 1 55.8 8.6 A 4.471 4.471 0 0 1 56.425 9.284 Q 56.696 9.645 56.947 10.1 A 9.735 9.735 0 0 1 57.25 10.7 A 40.222 40.222 0 0 1 57.771 11.868 Q 58.075 12.581 58.3 13.2 Q 58.9 14.8 58.9 17.4 A 15.585 15.585 0 0 1 58.733 19.726 A 12.871 12.871 0 0 1 58.45 21.1 A 5.406 5.406 0 0 1 58.249 21.72 Q 57.998 22.348 57.651 22.611 A 0.892 0.892 0 0 1 57.1 22.8 Q 56.608 22.8 55.824 21.926 A 7.632 7.632 0 0 1 55.8 21.9 Q 54.713 20.631 54.2 18.582 A 12.499 12.499 0 0 1 54.1 18.15 A 17.463 17.463 0 0 0 53.255 15.324 A 14.809 14.809 0 0 0 52.6 13.9 A 42.195 42.195 0 0 0 50.709 10.261 A 36.71 36.71 0 0 0 50 9.1 Q 48.6 6.9 46.6 5.3 A 6.536 6.536 0 0 0 45.895 4.625 Q 45.515 4.309 45.042 3.992 A 14.666 14.666 0 0 0 44.25 3.5 A 6.672 6.672 0 0 0 41.554 2.643 A 8.285 8.285 0 0 0 40.7 2.6 A 7.467 7.467 0 0 0 39.646 2.67 Q 39.082 2.751 38.61 2.924 A 3.972 3.972 0 0 0 38.2 3.1 A 9.63 9.63 0 0 0 35.37 4.808 A 8.475 8.475 0 0 0 33.25 7.7 A 16.481 16.481 0 0 0 31.823 13.752 A 19.348 19.348 0 0 0 31.8 14.7 Q 31.8 19.3 33.3 23.85 A 35.613 35.613 0 0 0 34.328 26.604 Q 35.424 29.188 36.7 30.8 A 1.273 1.273 0 0 0 37.096 31.102 Q 37.72 31.427 39.028 31.54 A 13.201 13.201 0 0 0 39.15 31.55 Q 41.084 31.699 41.887 31.897 A 4.241 4.241 0 0 1 41.9 31.9 A 7.352 7.352 0 0 1 42.719 31.994 Q 43.568 32.144 44.061 32.492 A 1.867 1.867 0 0 1 44.2 32.6 Q 44.712 33.039 44.85 33.531 A 1.365 1.365 0 0 1 44.9 33.9 A 1.829 1.829 0 0 1 44.444 35.099 Q 44.219 35.367 43.885 35.61 A 4.464 4.464 0 0 1 43.6 35.8 Q 43.123 36.278 42.006 36.299 A 5.539 5.539 0 0 1 41.9 36.3 Q 40.37 36.3 38.515 35.773 A 18.491 18.491 0 0 1 38.1 35.65 A 62.897 62.897 0 0 0 36.739 35.244 Q 36.129 35.071 35.595 34.935 A 26.891 26.891 0 0 0 34.6 34.7 Q 32.022 34.786 28.779 35.463 A 52.485 52.485 0 0 0 27.7 35.7 A 50.698 50.698 0 0 0 21.515 37.564 A 58.102 58.102 0 0 0 19.75 38.25 Q 15.7 39.9 12.25 42.3 A 24.169 24.169 0 0 0 8.612 45.379 A 20.285 20.285 0 0 0 6.65 47.75 Q 4.5 50.8 4.4 54.4 A 9.659 9.659 0 0 0 4.397 54.641 Q 4.397 58.127 6.946 60.764 A 11.675 11.675 0 0 0 7.5 61.3 A 8.653 8.653 0 0 0 10.152 62.883 Q 12.733 63.907 16.769 64.135 A 43.187 43.187 0 0 0 19.2 64.2 A 52.294 52.294 0 0 0 24.162 63.953 A 65.641 65.641 0 0 0 27.8 63.5 Q 32.4 62.8 36.85 61.65 A 121.378 121.378 0 0 0 42.159 60.154 A 99.049 99.049 0 0 0 45.1 59.2 Q 47.848 58.26 49.864 57.32 A 26.82 26.82 0 0 0 51.3 56.6 Q 52.577 55.995 54.215 54.962 A 53.657 53.657 0 0 0 55.9 53.85 Q 58.6 52 61.25 49.6 A 31.349 31.349 0 0 0 63.947 46.853 A 25.214 25.214 0 0 0 65.65 44.65 A 11.569 11.569 0 0 0 66.717 42.759 Q 67.246 41.553 67.365 40.383 A 6.701 6.701 0 0 0 67.4 39.7 L 67.4 39.2 A 1.494 1.494 0 0 0 67.386 38.989 Q 67.363 38.825 67.3 38.7 Q 67.2 38.3 67.7 38.3 Q 68.2 38.3 68.4 38.5 Q 69.8 40.5 69.8 42.9 A 9.669 9.669 0 0 1 68.831 47.057 A 13.325 13.325 0 0 1 67.55 49.2 Q 65.3 52.3 62.2 54.8 A 49.378 49.378 0 0 1 59.764 56.65 Q 58.582 57.488 57.482 58.143 A 26.086 26.086 0 0 1 56.5 58.7 A 32.983 32.983 0 0 1 53.319 60.311 Q 51.637 61.057 49.693 61.731 A 56.314 56.314 0 0 1 49.05 61.95 A 90.104 90.104 0 0 1 40.543 64.317 A 98.671 98.671 0 0 1 39.95 64.45 Q 35.2 65.5 30.7 66.05 Q 26.833 66.523 23.705 66.589 A 47.29 47.29 0 0 1 22.7 66.6 Z M 345.1 61.7 Q 344.3 61.7 344.7 61 A 35.232 35.232 0 0 1 344.798 60.712 Q 345.06 59.95 345.75 58 A 4130.003 4130.003 0 0 0 346.437 56.059 Q 346.744 55.192 347.085 54.227 A 8133.234 8133.234 0 0 0 347.8 52.2 Q 349 48.8 350.3 45.25 A 351.723 351.723 0 0 1 351.475 42.087 Q 352.036 40.6 352.553 39.275 A 210.812 210.812 0 0 1 352.7 38.9 Q 352.164 39.589 351.189 40.747 A 162.312 162.312 0 0 1 350.55 41.5 Q 349.1 43.2 347.5 45.1 A 62.911 62.911 0 0 1 346.044 46.771 Q 345.244 47.656 344.5 48.4 A 3.984 3.984 0 0 1 344.395 48.502 Q 344.241 48.645 344.155 48.685 A 0.138 0.138 0 0 1 344.101 48.7 Q 343.834 48.7 343.804 48.227 A 2.02 2.02 0 0 1 343.8 48.1 Q 343.8 46.9 344.4 45.9 Q 346.6 43.1 348.65 40.65 Q 350.7 38.2 352.4 36 Q 351.729 35.597 351.508 35.059 A 1.459 1.459 0 0 1 351.4 34.5 A 2.015 2.015 0 0 1 351.47 33.946 Q 351.648 33.325 352.282 33.16 A 2.063 2.063 0 0 1 352.8 33.1 A 2.902 2.902 0 0 1 353.114 33.116 Q 353.485 33.156 353.7 33.3 A 0.451 0.451 0 0 0 353.761 33.352 Q 353.831 33.4 353.9 33.4 Q 353.979 33.4 354.058 33.525 A 0.861 0.861 0 0 1 354.1 33.6 A 19.935 19.935 0 0 0 354.56 32.93 Q 354.773 32.604 354.949 32.302 A 7.643 7.643 0 0 0 354.95 32.3 Q 355.3 31.7 355.6 31 A 32.817 32.817 0 0 1 355.835 30.487 Q 356.186 29.733 356.829 28.412 A 363.541 363.541 0 0 1 357.25 27.55 A 121.023 121.023 0 0 1 358.279 25.504 Q 358.746 24.596 359.276 23.595 A 234.034 234.034 0 0 1 360.4 21.5 A 97.48 97.48 0 0 1 362.99 17.027 A 116.224 116.224 0 0 1 364.75 14.25 Q 367.2 10.5 370.05 7.25 A 33.127 33.127 0 0 1 373.135 4.15 A 25.632 25.632 0 0 1 375.95 2 A 12.749 12.749 0 0 1 378.94 0.532 A 10.336 10.336 0 0 1 382.2 0 Q 382.6 0 383 0.05 Q 383.4 0.1 383.8 0.2 Q 386.3 0.7 387.3 1.95 A 4.553 4.553 0 0 1 388.299 4.768 A 5.692 5.692 0 0 1 388.3 4.9 A 7.276 7.276 0 0 1 388.142 6.375 A 9.471 9.471 0 0 1 387.85 7.45 A 12.569 12.569 0 0 1 386.795 9.774 A 14.127 14.127 0 0 1 386.6 10.1 A 34.039 34.039 0 0 1 384.024 13.943 A 44.981 44.981 0 0 1 381.3 17.15 A 84.377 84.377 0 0 1 375.929 22.419 A 97.125 97.125 0 0 1 373.95 24.15 Q 369.9 27.6 365.85 30.85 Q 361.8 34.1 358.3 37 A 107.661 107.661 0 0 0 356.655 40.663 Q 355.879 42.487 355.27 44.135 A 56.854 56.854 0 0 0 354.6 46.05 Q 353.3 50 352.6 52.4 A 70.749 70.749 0 0 1 353.219 51.625 Q 353.928 50.748 354.93 49.553 A 301.912 301.912 0 0 1 355.9 48.4 Q 358.1 45.8 360.9 42.8 Q 363.7 39.8 366.7 37.05 A 52.926 52.926 0 0 1 369.447 34.692 Q 370.966 33.48 372.4 32.55 Q 374.89 30.936 376.699 30.811 A 4.341 4.341 0 0 1 377 30.8 A 3.307 3.307 0 0 1 377.965 30.928 Q 379.025 31.252 379.302 32.39 A 3.852 3.852 0 0 1 379.4 33.3 Q 379.4 35.7 377.7 38.6 A 319.768 319.768 0 0 0 376.888 39.994 Q 375.735 41.984 374.913 43.476 A 103.059 103.059 0 0 0 374.9 43.5 A 47.141 47.141 0 0 0 373.432 46.856 A 37.853 37.853 0 0 0 372.65 49.05 A 38.875 38.875 0 0 0 372.183 50.613 Q 371.738 52.231 371.6 53.4 A 3.473 3.473 0 0 0 371.521 53.823 A 2.713 2.713 0 0 0 371.5 54.15 L 371.5 54.9 A 8.462 8.462 0 0 0 371.607 56.31 Q 372.032 58.812 374.149 58.897 A 3.763 3.763 0 0 0 374.3 58.9 A 3.457 3.457 0 0 0 375.279 58.741 Q 376.197 58.468 377.376 57.726 A 18.104 18.104 0 0 0 378.3 57.1 A 42.593 42.593 0 0 0 381.145 54.854 A 53.976 53.976 0 0 0 383.4 52.8 A 114.022 114.022 0 0 0 386.475 49.734 A 94.536 94.536 0 0 0 388.15 47.95 Q 390.3 45.6 391.1 44.4 A 1.045 1.045 0 0 1 391.409 44.182 A 0.94 0.94 0 0 1 391.8 44.1 A 0.843 0.843 0 0 1 392.052 44.135 A 0.637 0.637 0 0 1 392.4 44.4 Q 392.582 44.672 392.434 45.108 A 1.789 1.789 0 0 1 392.4 45.2 A 20.148 20.148 0 0 1 391.668 46.346 Q 390.806 47.607 389.49 49.219 A 68.706 68.706 0 0 1 389.3 49.45 A 62.993 62.993 0 0 1 385.908 53.235 A 72.945 72.945 0 0 1 384.6 54.55 Q 382 57.1 379.5 58.9 A 9.852 9.852 0 0 1 378.219 59.727 Q 377.304 60.228 376.15 60.65 Q 374.688 61.185 373.252 61.338 A 10.836 10.836 0 0 1 372.1 61.4 A 6.471 6.471 0 0 1 369.141 60.673 A 7.586 7.586 0 0 1 369 60.6 Q 367.698 59.905 366.999 58.156 A 8.184 8.184 0 0 1 366.8 57.6 A 3.597 3.597 0 0 1 366.793 57.579 Q 366.5 56.681 366.5 55.1 L 366.5 54.05 A 6.722 6.722 0 0 1 366.554 53.215 A 7.842 7.842 0 0 1 366.6 52.9 A 18.495 18.495 0 0 1 367.406 49.401 A 25.298 25.298 0 0 1 368.75 46.15 A 251.039 251.039 0 0 1 370.413 42.837 Q 371.213 41.272 371.953 39.889 A 152.835 152.835 0 0 1 372 39.8 Q 372.307 39.188 372.525 38.692 A 15.606 15.606 0 0 0 372.65 38.4 A 4.461 4.461 0 0 0 372.782 38.045 Q 372.896 37.687 372.9 37.418 A 1.301 1.301 0 0 0 372.9 37.4 A 1.33 1.33 0 0 0 372.869 37.098 Q 372.773 36.686 372.379 36.615 A 1.002 1.002 0 0 0 372.2 36.6 A 1.705 1.705 0 0 0 371.779 36.662 Q 371.108 36.836 370 37.5 A 14.429 14.429 0 0 0 369.078 38.109 Q 367.797 39.019 366 40.6 A 29.335 29.335 0 0 0 364.064 42.445 Q 362.748 43.811 361.35 45.55 Q 358.9 48.6 356.55 51.8 Q 354.2 55 352.45 57.3 A 42.668 42.668 0 0 1 351.831 58.096 Q 350.86 59.311 350.3 59.783 A 2.091 2.091 0 0 1 350 60 A 4.029 4.029 0 0 1 349.719 60.15 Q 349.107 60.453 347.7 61 Q 345.9 61.7 345.1 61.7 Z M 488.4 26.5 L 488.2 26.5 A 0.72 0.72 0 0 1 488.003 26.475 Q 487.7 26.389 487.7 26 A 0.765 0.765 0 0 1 487.762 25.686 Q 487.844 25.502 488.035 25.383 A 1.051 1.051 0 0 1 488.2 25.3 A 8.594 8.594 0 0 1 489.153 25.123 Q 490.083 25 491.3 25 A 11.581 11.581 0 0 1 494.431 25.443 A 13.292 13.292 0 0 1 494.95 25.6 A 4.368 4.368 0 0 1 496.328 26.319 A 3.836 3.836 0 0 1 497.5 27.9 Q 498.3 29.8 498.3 31.7 Q 498.3 35.4 496.15 39.6 A 41.647 41.647 0 0 1 491.897 46.227 A 47.376 47.376 0 0 1 490.7 47.7 Q 488.1 50.9 484.9 53.7 A 96.892 96.892 0 0 1 482.807 55.483 Q 480.91 57.05 479.4 58.1 Q 478.366 58.896 476.793 59.565 A 19.721 19.721 0 0 1 475.95 59.9 Q 473.8 60.7 471.5 60.7 Q 469.6 60.7 468 59.85 A 4.409 4.409 0 0 1 466.264 58.157 A 6.469 6.469 0 0 1 465.7 56.9 A 14.505 14.505 0 0 1 465.247 54.85 Q 465.093 53.83 465.035 52.66 A 29.607 29.607 0 0 1 465 51.2 Q 465 49.5 465.25 47.75 Q 465.465 46.246 465.791 45.075 A 14.243 14.243 0 0 1 465.9 44.7 A 108.06 108.06 0 0 1 465.617 45.207 Q 465.2 45.948 464.474 47.221 A 1075.712 1075.712 0 0 1 464 48.05 A 46.338 46.338 0 0 1 462.48 50.517 Q 461.583 51.88 460.5 53.35 A 24.654 24.654 0 0 1 455.957 58.089 A 23.189 23.189 0 0 1 455.75 58.25 A 9.923 9.923 0 0 1 452.808 59.85 A 8.837 8.837 0 0 1 450 60.3 A 12.179 12.179 0 0 1 448.078 60.16 Q 445.608 59.763 444.5 58.25 Q 443 56.2 443 53.3 A 18.662 18.662 0 0 1 443.625 48.599 A 23.331 23.331 0 0 1 444.45 46.05 Q 445.9 42.3 447.4 40.1 L 449.5 37.1 A 104.82 104.82 0 0 1 451.487 34.354 A 90.202 90.202 0 0 1 452.25 33.35 A 28.296 28.296 0 0 1 452.727 32.748 Q 453.443 31.871 453.851 31.554 A 1.089 1.089 0 0 1 454.1 31.4 Q 454.7 31.2 455.4 31.1 Q 456.1 31 456.8 31 Q 458.032 31 458.908 31.356 A 3.548 3.548 0 0 1 459.4 31.6 A 2.461 2.461 0 0 1 459.802 31.756 Q 460.003 31.858 460.137 31.986 A 0.821 0.821 0 0 1 460.4 32.6 Q 460.4 32.9 459.9 33.4 A 11.823 11.823 0 0 0 459.275 33.957 Q 458.205 34.97 456.4 37 A 55.674 55.674 0 0 0 453.494 40.569 A 69.155 69.155 0 0 0 451.65 43.15 A 32.997 32.997 0 0 0 449.371 47.015 A 26.481 26.481 0 0 0 448.1 50 A 24.453 24.453 0 0 0 447.415 51.893 Q 446.821 53.791 446.801 55.204 A 6.91 6.91 0 0 0 446.8 55.3 Q 446.8 58.3 449 58.3 A 4.206 4.206 0 0 0 450.314 58.058 Q 452.187 57.435 454.993 55.206 A 35.375 35.375 0 0 0 455 55.2 A 29.23 29.23 0 0 0 458.087 52.377 A 37.568 37.568 0 0 0 460.4 49.7 Q 463 46.4 465.25 42.75 Q 467.5 39.1 469.3 36 A 0.955 0.955 0 0 1 469.767 35.525 Q 470.207 35.3 471 35.3 A 7.965 7.965 0 0 1 474.144 35.959 A 9.214 9.214 0 0 1 474.35 36.05 Q 476 36.8 475.3 37.8 Q 472.4 42.5 470.9 47.9 A 45.698 45.698 0 0 0 470.668 48.877 Q 470.569 49.317 470.464 49.81 A 93.338 93.338 0 0 0 470.25 50.85 Q 469.9 52.6 469.9 54.3 A 9.065 9.065 0 0 0 470.011 55.755 Q 470.144 56.574 470.438 57.26 A 5.499 5.499 0 0 0 470.5 57.4 Q 470.996 58.474 472.175 58.661 A 3.362 3.362 0 0 0 472.7 58.7 Q 473.5 58.7 474.35 58.45 A 5.479 5.479 0 0 0 475.023 58.199 Q 475.613 57.938 476.3 57.5 A 30.966 30.966 0 0 0 480.876 54.524 A 39.392 39.392 0 0 0 483.75 52.05 Q 487.4 48.6 490.2 44.35 A 29.427 29.427 0 0 0 492.408 40.399 A 21.879 21.879 0 0 0 493.9 36 A 9.086 9.086 0 0 0 494.095 34.942 Q 494.2 34.109 494.2 33.1 Q 494.2 31.1 493.55 29.25 A 4.55 4.55 0 0 0 492.785 27.857 A 3.963 3.963 0 0 0 491.2 26.7 Q 490.6 26.5 489.9 26.45 A 6.706 6.706 0 0 0 489.423 26.433 Q 489.057 26.433 488.666 26.471 A 9.185 9.185 0 0 0 488.4 26.5 Z M 619.8 31.6 L 620.2 31.9 A 196.308 196.308 0 0 1 625.32 21.103 A 213.69 213.69 0 0 1 625.5 20.75 A 91.841 91.841 0 0 1 629.677 13.43 A 79.031 79.031 0 0 1 631.7 10.4 A 40.594 40.594 0 0 1 634.882 6.4 A 29.634 29.634 0 0 1 638.7 2.85 Q 642.4 0 646.4 0 Q 646.9 0 647.4 0.05 Q 647.9 0.1 648.3 0.2 A 10.175 10.175 0 0 1 649.657 0.563 Q 651.112 1.071 651.85 1.95 Q 652.9 3.2 652.9 4.9 A 7.276 7.276 0 0 1 652.742 6.375 A 9.471 9.471 0 0 1 652.45 7.45 A 12.569 12.569 0 0 1 651.395 9.774 A 14.127 14.127 0 0 1 651.2 10.1 A 37.195 37.195 0 0 1 647.971 14.876 A 46.743 46.743 0 0 1 645.45 17.8 A 90.553 90.553 0 0 1 637.962 24.928 A 98.802 98.802 0 0 1 637.7 25.15 Q 633.5 28.7 629.35 32 Q 625.2 35.3 621.8 38.2 A 73.781 73.781 0 0 0 620.488 41.492 Q 619.855 43.19 619.222 45.102 A 127.011 127.011 0 0 0 618.8 46.4 A 806.232 806.232 0 0 0 617.746 49.728 Q 617.336 51.033 616.974 52.201 A 398.369 398.369 0 0 0 616.3 54.4 A 63.808 63.808 0 0 0 615.705 57.005 A 50.91 50.91 0 0 0 615.35 58.9 A 26.709 26.709 0 0 0 615.072 61.107 A 20.749 20.749 0 0 0 615 62.8 A 14.933 14.933 0 0 0 615.155 65.017 Q 615.432 66.855 616.2 68.2 Q 616.947 69.395 617.972 69.697 A 2.558 2.558 0 0 0 618.7 69.8 A 2.876 2.876 0 0 0 620.487 69.177 A 3.759 3.759 0 0 0 620.7 69 Q 621.1 68.8 621.45 68.5 Q 621.777 68.22 622.235 67.94 A 8.618 8.618 0 0 1 622.3 67.9 Q 622.9 67.6 623.3 67.6 A 0.618 0.618 0 0 1 623.461 67.619 Q 623.922 67.743 623.4 68.7 A 12.747 12.747 0 0 0 623.161 68.946 Q 623.056 69.057 622.941 69.183 A 25.227 25.227 0 0 0 622.7 69.45 Q 622.3 69.9 621.8 70.4 Q 621.1 70.9 619.7 71.2 Q 618.3 71.5 616.9 71.5 A 7.195 7.195 0 0 1 616.381 71.48 A 8.664 8.664 0 0 1 616.05 71.45 A 6.672 6.672 0 0 1 615.41 71.348 A 5.804 5.804 0 0 1 615.2 71.3 A 5.778 5.778 0 0 1 613.525 70.793 A 4.46 4.46 0 0 1 611.5 68.8 A 9.084 9.084 0 0 1 610.68 66.47 Q 610.455 65.418 610.411 64.201 A 16.662 16.662 0 0 1 610.4 63.6 A 30.092 30.092 0 0 1 610.733 59.248 A 39.488 39.488 0 0 1 611.45 55.6 Q 612.5 51.3 613.9 47.5 Q 615.3 43.7 616.1 41.7 Q 613.8 44.4 610.85 47.6 Q 607.9 50.8 604.7 53.7 Q 601.552 56.553 598.646 58.39 A 32.239 32.239 0 0 1 598.55 58.45 A 16.666 16.666 0 0 1 596.801 59.416 Q 594.922 60.3 593.4 60.3 A 6.173 6.173 0 0 1 591.657 60.036 Q 590.952 59.829 590.212 59.459 A 10.8 10.8 0 0 1 590 59.35 A 8.845 8.845 0 0 1 588.024 57.948 A 7.818 7.818 0 0 1 587.1 56.9 A 8.194 8.194 0 0 1 586.109 55.211 A 6.081 6.081 0 0 1 585.6 52.8 A 8.858 8.858 0 0 1 586.154 49.787 Q 586.612 48.514 587.45 47.2 A 26.725 26.725 0 0 1 590.035 43.809 A 34.071 34.071 0 0 1 592.25 41.55 Q 595.2 38.8 598.55 36.55 A 68.72 68.72 0 0 1 602.224 34.24 A 53.606 53.606 0 0 1 604.95 32.75 Q 608 31.2 609.9 30.7 A 117.926 117.926 0 0 1 611.457 30.4 A 135.19 135.19 0 0 1 612 30.3 Q 613.1 30.1 614.3 30.1 Q 615.8 30.1 617.3 30.45 A 7.272 7.272 0 0 1 618.597 30.877 A 5.45 5.45 0 0 1 619.8 31.6 Z M 100 39.6 L 92.9 45.3 Q 92.9 46.318 93.842 48.876 A 45.703 45.703 0 0 0 94 49.3 Q 95.1 52.2 96.5 54.9 A 11.651 11.651 0 0 0 97.418 56.348 Q 98.71 58.063 100.205 58.345 A 3.212 3.212 0 0 0 100.8 58.4 A 5.031 5.031 0 0 0 102.8 57.97 A 7.007 7.007 0 0 0 104 57.3 A 20.903 20.903 0 0 0 105.9 55.817 A 26.335 26.335 0 0 0 107.2 54.6 A 105.115 105.115 0 0 0 111.362 49.607 A 115.691 115.691 0 0 0 111.95 48.85 Q 114.3 45.8 115.3 44.4 A 1.045 1.045 0 0 1 115.609 44.182 A 0.94 0.94 0 0 1 116 44.1 Q 116.495 44.1 116.745 44.492 A 1.039 1.039 0 0 1 116.75 44.5 A 0.535 0.535 0 0 1 116.834 44.789 Q 116.834 45.1 116.5 45.5 Q 115.9 46.3 114.45 48.3 Q 113 50.3 111.15 52.6 A 54.106 54.106 0 0 1 108.362 55.809 A 47.008 47.008 0 0 1 107.4 56.8 A 30.109 30.109 0 0 1 105.776 58.206 Q 104.124 59.53 102.756 60.153 A 8.508 8.508 0 0 1 102.65 60.2 A 12.215 12.215 0 0 1 101.057 60.779 Q 100.202 61.02 99.416 61.08 A 6.74 6.74 0 0 1 98.9 61.1 Q 98.5 61.1 98 61.05 Q 97.5 61 97 60.9 Q 94.8 60.4 93.15 58.3 Q 91.5 56.2 90.35 53.6 Q 89.204 51.008 88.505 49.211 A 51.183 51.183 0 0 1 88.5 49.2 Q 86.7 51.1 84.15 53.85 A 204.712 204.712 0 0 0 80.865 57.483 A 250.075 250.075 0 0 0 78.8 59.85 Q 76 63.1 73.55 66.5 Q 71.1 69.9 69.55 73 A 20.151 20.151 0 0 0 68.656 75.049 Q 68.257 76.133 68.067 77.117 A 9.337 9.337 0 0 0 67.9 78.5 A 2.613 2.613 0 0 1 67.836 78.898 Q 67.787 79.093 67.709 79.233 A 0.657 0.657 0 0 1 67.1 79.6 A 1.04 1.04 0 0 1 66.708 79.532 Q 66.2 79.326 66.2 78.5 Q 66.2 74.8 68.35 70.6 A 54.122 54.122 0 0 1 72.115 64.361 A 63.035 63.035 0 0 1 73.65 62.25 A 114.767 114.767 0 0 1 77.982 56.875 A 97.395 97.395 0 0 1 79.95 54.65 Q 83.1 51.2 85.25 48.95 A 58.782 58.782 0 0 0 85.754 48.416 Q 87.4 46.65 87.4 46.3 A 4.708 4.708 0 0 0 87.353 45.67 Q 87.26 44.988 86.986 44.049 A 21.487 21.487 0 0 0 86.8 43.45 A 14.485 14.485 0 0 0 85.216 40.074 A 13.631 13.631 0 0 0 85.2 40.05 A 5.242 5.242 0 0 0 84.671 39.354 Q 83.891 38.5 83 38.5 A 2.401 2.401 0 0 0 81.928 38.778 Q 80.864 39.308 79.65 40.85 A 114.08 114.08 0 0 1 78.157 42.704 Q 76.825 44.325 75.2 46.2 A 3.492 3.492 0 0 1 74.907 46.506 Q 74.577 46.807 74.28 46.878 A 0.772 0.772 0 0 1 74.1 46.9 Q 73.5 46.9 73.5 46.2 A 1.479 1.479 0 0 1 73.591 45.674 A 1.329 1.329 0 0 1 73.9 45.2 Q 74.8 44.1 76.3 42.05 A 137.533 137.533 0 0 1 78.663 38.919 A 154.049 154.049 0 0 1 79.5 37.85 A 32.71 32.71 0 0 1 81.083 35.988 Q 81.974 35.02 82.85 34.25 Q 84.231 33.037 85.296 32.839 A 2.208 2.208 0 0 1 85.7 32.8 A 6.542 6.542 0 0 1 87.045 32.929 Q 87.83 33.094 88.418 33.47 A 3.284 3.284 0 0 1 89.3 34.3 Q 90.365 35.752 90.961 37.906 A 15.84 15.84 0 0 1 91 38.05 Q 91.6 40.3 92.4 42.8 A 177.735 177.735 0 0 1 97.393 38.247 A 151.292 151.292 0 0 1 99.6 36.35 Q 103.1 33.4 107.4 30.7 Q 108.1 30.3 108.9 30.3 A 3.46 3.46 0 0 1 110.248 30.558 A 3.286 3.286 0 0 1 111 31 A 2.412 2.412 0 0 1 111.6 31.662 A 2.172 2.172 0 0 1 111.9 32.8 Q 111.9 33.8 110.95 33.85 A 8.426 8.426 0 0 0 110.426 33.893 Q 109.923 33.951 109.591 34.066 A 2.066 2.066 0 0 0 109.5 34.1 A 46.046 46.046 0 0 0 107.344 34.975 Q 105.144 35.938 103.7 36.9 Q 101.6 38.3 100 39.6 Z M 296.3 29.35 A 18.216 18.216 0 0 0 297.31 29.97 Q 298.611 30.709 299.7 31 A 3.272 3.272 0 0 0 299.764 31.021 Q 300.153 31.141 300.478 31.133 A 1.432 1.432 0 0 0 300.75 31.1 Q 301.063 31.03 301.159 30.816 A 0.527 0.527 0 0 0 301.2 30.6 A 0.506 0.506 0 0 0 301.144 30.373 Q 301.002 30.087 300.5 29.8 A 6.62 6.62 0 0 0 300.465 29.769 Q 299.922 29.301 299.07 28.767 A 22.863 22.863 0 0 0 298.2 28.25 Q 296.7 27.4 295.55 26.1 A 4.433 4.433 0 0 1 294.653 24.549 A 5.191 5.191 0 0 1 294.4 22.9 Q 294.4 22.6 294.45 22.3 Q 294.5 22 294.6 21.6 Q 295.4 17.8 298.1 15.1 A 21.8 21.8 0 0 1 300.087 13.344 A 25.195 25.195 0 0 1 304.6 10.55 A 35.063 35.063 0 0 1 305.56 10.101 A 38.255 38.255 0 0 1 312.8 7.7 A 81.683 81.683 0 0 1 313.897 7.459 A 73.82 73.82 0 0 1 321.4 6.25 Q 323.502 6.025 325.404 5.912 A 61.032 61.032 0 0 1 329 5.8 Q 336.2 5.8 343.6 6.5 Q 351 7.2 358.2 7.3 Q 357.8 7.8 357.05 8.75 A 21.147 21.147 0 0 0 356.662 9.257 Q 356.19 9.894 355.9 10.4 A 13.078 13.078 0 0 0 355.411 11.438 A 14.652 14.652 0 0 0 354.5 14.6 A 28.921 28.921 0 0 0 354.241 16.419 A 22.908 22.908 0 0 0 354.1 18.9 Q 354.1 21.323 354.532 22.506 A 2.45 2.45 0 0 0 354.9 23.2 Q 355.375 23.675 355.815 23.868 A 1.452 1.452 0 0 0 356.4 24 A 1.179 1.179 0 0 0 356.697 23.966 Q 357.2 23.835 357.2 23.2 A 0.419 0.419 0 0 0 357.178 23.067 Q 357.154 22.995 357.104 22.922 A 0.902 0.902 0 0 0 357 22.8 A 4.595 4.595 0 0 1 356.359 21.315 A 6.024 6.024 0 0 1 356.2 19.9 A 6.77 6.77 0 0 1 356.235 19.222 Q 356.435 17.234 357.8 15.1 Q 359.4 12.6 361.4 10.6 A 18.883 18.883 0 0 1 362.375 9.628 A 15.476 15.476 0 0 1 364.3 8.1 A 30.426 30.426 0 0 0 364.693 7.834 Q 365.472 7.297 366 6.854 A 7.79 7.79 0 0 0 366.5 6.4 Q 367.3 5.6 367.3 4.7 A 2.193 2.193 0 0 0 367.3 4.66 Q 367.282 3.689 366.4 3.15 Q 365.5 2.6 364.4 2.6 A 6.387 6.387 0 0 0 364.22 2.602 Q 363.918 2.611 363.705 2.649 A 1.487 1.487 0 0 0 363.5 2.7 Q 362.485 2.934 360.554 4.756 A 34.895 34.895 0 0 0 359.4 5.9 Q 356.1 5.8 350.45 4.95 Q 344.8 4.1 337.9 3.2 Q 331 2.3 324 2.3 L 321.6 2.3 Q 320.4 2.3 319.2 2.4 Q 312.9 2.8 307.1 4.6 Q 301.3 6.4 297.3 9.65 Q 293.3 12.9 292.2 17.9 A 4.132 4.132 0 0 0 292.153 18.117 Q 292.12 18.285 292.095 18.48 A 9.049 9.049 0 0 0 292.05 18.9 Q 292 19.5 292 19.6 A 7.211 7.211 0 0 0 291.952 19.738 A 6.358 6.358 0 0 0 291.6 21.8 Q 291.6 24.2 293 26.15 A 14.121 14.121 0 0 0 293.044 26.211 A 12.505 12.505 0 0 0 296.3 29.35 Z M 250.3 49.1 L 250.1 49.1 Q 249.231 49.1 248.943 48.743 A 0.683 0.683 0 0 1 248.8 48.3 Q 248.8 47.823 249.53 47.801 A 2.391 2.391 0 0 1 249.6 47.8 A 8.916 8.916 0 0 0 251.31 47.47 Q 252.933 47.004 254.972 45.921 A 32.709 32.709 0 0 0 255.65 45.55 A 55.95 55.95 0 0 0 259.488 43.196 A 43.864 43.864 0 0 0 262.1 41.3 Q 263.3 40.3 264.95 38.5 A 8.281 8.281 0 0 0 265.816 37.392 Q 266.227 36.753 266.422 36.128 A 3.762 3.762 0 0 0 266.6 35 A 2.755 2.755 0 0 0 266.52 34.301 Q 266.285 33.409 265.367 33.24 A 2.578 2.578 0 0 0 264.9 33.2 A 4.45 4.45 0 0 0 263.647 33.387 A 5.567 5.567 0 0 0 263.05 33.6 Q 262.1 34 261.5 34.2 A 22.549 22.549 0 0 0 259.241 35.468 Q 258.036 36.232 256.741 37.227 A 46.729 46.729 0 0 0 255.1 38.55 Q 251.6 41.5 248.75 45.15 A 25.927 25.927 0 0 0 246.369 48.755 A 19.612 19.612 0 0 0 244.8 52.5 A 7.598 7.598 0 0 0 244.504 53.48 A 6.342 6.342 0 0 0 244.4 54.05 A 11.216 11.216 0 0 0 244.304 55.236 A 10.001 10.001 0 0 0 244.3 55.5 A 5.804 5.804 0 0 0 244.43 56.771 Q 244.608 57.566 245.033 58.139 A 3.097 3.097 0 0 0 245.85 58.9 A 6.157 6.157 0 0 0 248.134 59.776 A 8.348 8.348 0 0 0 249.6 59.9 A 16.533 16.533 0 0 0 254.125 59.245 A 20.724 20.724 0 0 0 256.4 58.45 A 35.741 35.741 0 0 0 262.787 54.984 A 39.571 39.571 0 0 0 263.2 54.7 Q 266.5 52.4 269.25 49.75 Q 272 47.1 273.9 44.6 A 1.389 1.389 0 0 1 274.118 44.366 A 0.918 0.918 0 0 1 274.6 44.15 A 1.372 1.372 0 0 1 274.673 44.143 Q 275.01 44.119 275.1 44.3 A 0.581 0.581 0 0 1 275.303 44.39 Q 275.5 44.534 275.5 44.85 Q 275.5 45.3 275.3 45.7 A 49.195 49.195 0 0 1 270.963 50.909 A 59.087 59.087 0 0 1 268.55 53.3 Q 264.6 57 259.85 59.45 Q 255.1 61.9 250 61.9 A 16.206 16.206 0 0 1 245.953 61.415 A 12.946 12.946 0 0 1 242.2 59.8 A 6.79 6.79 0 0 1 239.007 54.874 A 9.816 9.816 0 0 1 238.9 53.4 A 9.673 9.673 0 0 1 239.089 51.576 Q 239.262 50.679 239.593 49.67 A 23.752 23.752 0 0 1 240.3 47.8 Q 241.3 45.5 244 42.5 Q 246.7 39.5 250.3 36.65 Q 253.9 33.8 257.6 31.95 Q 261.3 30.1 264.3 30.1 A 6.981 6.981 0 0 1 265.459 30.192 A 5.588 5.588 0 0 1 266.3 30.4 A 5.196 5.196 0 0 1 267.382 30.918 A 3.481 3.481 0 0 1 268.65 32.3 Q 269.3 33.6 269.3 35 Q 269.3 36.3 268.9 37.5 A 9.772 9.772 0 0 1 268.403 38.723 A 7.72 7.72 0 0 1 267.9 39.6 A 14.687 14.687 0 0 1 265.385 42.448 A 20.013 20.013 0 0 1 262.75 44.4 A 34.448 34.448 0 0 1 257.455 47.132 A 30.811 30.811 0 0 1 255.95 47.7 A 40.913 40.913 0 0 1 253.916 48.352 Q 251.953 48.922 250.504 49.08 A 11.524 11.524 0 0 1 250.3 49.1 Z M 399.2 49.1 L 399 49.1 Q 398.131 49.1 397.843 48.743 A 0.683 0.683 0 0 1 397.7 48.3 Q 397.7 47.823 398.43 47.801 A 2.391 2.391 0 0 1 398.5 47.8 A 8.916 8.916 0 0 0 400.21 47.47 Q 401.833 47.004 403.872 45.921 A 32.709 32.709 0 0 0 404.55 45.55 A 55.95 55.95 0 0 0 408.388 43.196 A 43.864 43.864 0 0 0 411 41.3 Q 412.2 40.3 413.85 38.5 A 8.281 8.281 0 0 0 414.716 37.392 Q 415.127 36.753 415.322 36.128 A 3.762 3.762 0 0 0 415.5 35 A 2.755 2.755 0 0 0 415.42 34.301 Q 415.185 33.409 414.267 33.24 A 2.578 2.578 0 0 0 413.8 33.2 A 4.45 4.45 0 0 0 412.547 33.387 A 5.567 5.567 0 0 0 411.95 33.6 Q 411 34 410.4 34.2 A 22.549 22.549 0 0 0 408.141 35.468 Q 406.936 36.232 405.641 37.227 A 46.729 46.729 0 0 0 404 38.55 Q 400.5 41.5 397.65 45.15 A 25.927 25.927 0 0 0 395.269 48.755 A 19.612 19.612 0 0 0 393.7 52.5 A 7.598 7.598 0 0 0 393.404 53.48 A 6.342 6.342 0 0 0 393.3 54.05 A 11.216 11.216 0 0 0 393.204 55.236 A 10.001 10.001 0 0 0 393.2 55.5 A 5.804 5.804 0 0 0 393.33 56.771 Q 393.508 57.566 393.933 58.139 A 3.097 3.097 0 0 0 394.75 58.9 A 6.157 6.157 0 0 0 397.034 59.776 A 8.348 8.348 0 0 0 398.5 59.9 A 16.533 16.533 0 0 0 403.025 59.245 A 20.724 20.724 0 0 0 405.3 58.45 A 35.741 35.741 0 0 0 411.687 54.984 A 39.571 39.571 0 0 0 412.1 54.7 Q 415.4 52.4 418.15 49.75 Q 420.9 47.1 422.8 44.6 A 1.389 1.389 0 0 1 423.018 44.366 A 0.918 0.918 0 0 1 423.5 44.15 A 1.372 1.372 0 0 1 423.573 44.143 Q 423.91 44.119 424 44.3 A 0.581 0.581 0 0 1 424.203 44.39 Q 424.4 44.534 424.4 44.85 Q 424.4 45.3 424.2 45.7 A 49.195 49.195 0 0 1 419.863 50.909 A 59.087 59.087 0 0 1 417.45 53.3 Q 413.5 57 408.75 59.45 Q 404 61.9 398.9 61.9 A 16.206 16.206 0 0 1 394.853 61.415 A 12.946 12.946 0 0 1 391.1 59.8 A 6.79 6.79 0 0 1 387.907 54.874 A 9.816 9.816 0 0 1 387.8 53.4 A 9.673 9.673 0 0 1 387.989 51.576 Q 388.162 50.679 388.493 49.67 A 23.752 23.752 0 0 1 389.2 47.8 Q 390.2 45.5 392.9 42.5 Q 395.6 39.5 399.2 36.65 Q 402.8 33.8 406.5 31.95 Q 410.2 30.1 413.2 30.1 A 6.981 6.981 0 0 1 414.359 30.192 A 5.588 5.588 0 0 1 415.2 30.4 A 5.196 5.196 0 0 1 416.282 30.918 A 3.481 3.481 0 0 1 417.55 32.3 Q 418.2 33.6 418.2 35 Q 418.2 36.3 417.8 37.5 A 9.772 9.772 0 0 1 417.303 38.723 A 7.72 7.72 0 0 1 416.8 39.6 A 14.687 14.687 0 0 1 414.285 42.448 A 20.013 20.013 0 0 1 411.65 44.4 A 34.448 34.448 0 0 1 406.355 47.132 A 30.811 30.811 0 0 1 404.85 47.7 A 40.913 40.913 0 0 1 402.816 48.352 Q 400.853 48.922 399.404 49.08 A 11.524 11.524 0 0 1 399.2 49.1 Z M 96.855 94.557 A 2.104 2.104 0 0 0 97.3 94.6 A 4.6 4.6 0 0 0 97.845 94.566 Q 98.26 94.517 98.725 94.395 A 9.857 9.857 0 0 0 99.65 94.1 A 13.184 13.184 0 0 0 100.543 93.733 A 10.767 10.767 0 0 0 102.05 92.9 A 13.292 13.292 0 0 0 102.199 92.799 Q 103.115 92.171 103.3 91.8 Q 104.2 90.1 104.9 88.25 A 53.364 53.364 0 0 0 104.922 88.192 A 57.925 57.925 0 0 0 106.2 84.4 A 11.418 11.418 0 0 0 106.457 83.621 Q 106.766 82.552 106.743 81.723 A 3.619 3.619 0 0 0 106.7 81.25 A 3.312 3.312 0 0 1 106.681 81.109 Q 106.579 80.23 106.893 79.005 A 12.311 12.311 0 0 1 107.2 78 Q 108.7 73.4 110.4 68.65 A 199.551 199.551 0 0 1 111.473 65.721 Q 111.988 64.351 112.459 63.169 A 84.737 84.737 0 0 1 113.4 60.9 A 6.379 6.379 0 0 0 114.004 61.067 Q 115.028 61.3 116.4 61.3 A 17.866 17.866 0 0 0 118.804 61.134 A 21.696 21.696 0 0 0 122.45 60.3 Q 125.6 59.3 128.45 57.9 A 93.829 93.829 0 0 0 129.74 57.255 Q 131.769 56.219 133.3 55.3 A 29.113 29.113 0 0 0 133.993 54.823 Q 136.1 53.329 138.5 51.1 Q 141.3 48.5 143.35 45.15 A 15.655 15.655 0 0 0 144.155 43.664 A 12.443 12.443 0 0 0 145.4 38.3 L 145.4 37.65 A 2.326 2.326 0 0 0 145.394 37.478 A 1.965 1.965 0 0 0 145.3 37 A 4.897 4.897 0 0 0 143.941 34.191 A 5.841 5.841 0 0 0 142.3 33.05 A 13.929 13.929 0 0 0 141.163 32.563 A 11.484 11.484 0 0 0 137.1 31.8 Q 134.6 31.8 132.45 32.85 Q 130.3 33.9 128.1 35.6 Q 125.3 37.8 123.2 40.9 Q 121.1 44 118.7 47.2 Q 120 44 121.3 40.95 Q 122.6 37.9 124.4 35 Q 125.775 33.006 126.205 31.532 A 4.43 4.43 0 0 0 126.4 30.3 Q 126.4 28.1 123.1 28.1 A 13.98 13.98 0 0 0 122.466 28.115 A 16.344 16.344 0 0 0 121 28.25 Q 120.562 28.31 120.298 28.473 A 0.801 0.801 0 0 0 119.9 29.2 Q 119.9 31.069 119.126 34.048 A 50.858 50.858 0 0 1 118.4 36.55 A 138.125 138.125 0 0 1 118.198 37.186 Q 117.477 39.429 116.595 41.921 A 234.995 234.995 0 0 1 114.65 47.2 Q 112.4 53.1 110 59.3 Q 107.3 66.3 104.65 72.95 Q 102 79.6 99.8 84.75 A 639.159 639.159 0 0 1 98.824 87.024 Q 97.319 90.509 96.4 92.5 A 6.513 6.513 0 0 0 96.315 92.71 Q 96.1 93.262 96.1 93.6 A 1.403 1.403 0 0 0 96.117 93.821 Q 96.212 94.417 96.855 94.557 Z M 221.054 61.401 A 6.551 6.551 0 0 0 222.7 61.6 A 10.529 10.529 0 0 0 224.796 61.381 A 13.964 13.964 0 0 0 226.95 60.75 A 21.02 21.02 0 0 0 228.11 60.274 Q 229.556 59.627 230.5 58.9 A 41.342 41.342 0 0 0 232.707 57.191 A 52.411 52.411 0 0 0 235.6 54.6 A 65.75 65.75 0 0 0 236.869 53.347 A 57.567 57.567 0 0 0 240.3 49.55 A 91.828 91.828 0 0 0 240.485 49.326 Q 242.449 46.925 243.5 45.3 A 1.399 1.399 0 0 0 243.552 45.207 Q 243.709 44.892 243.615 44.64 A 0.634 0.634 0 0 0 243.5 44.45 Q 243.2 44.1 242.8 44.1 A 0.942 0.942 0 0 0 242.669 44.109 A 0.646 0.646 0 0 0 242.2 44.4 A 17.167 17.167 0 0 1 242.167 44.444 Q 241.262 45.643 239.2 47.95 A 69.742 69.742 0 0 1 237.555 49.727 A 84.229 84.229 0 0 1 234.5 52.75 A 51.11 51.11 0 0 1 232.175 54.816 A 38.972 38.972 0 0 1 229.45 56.9 Q 227.843 58.016 226.558 58.399 A 4.41 4.41 0 0 1 225.3 58.6 A 2.665 2.665 0 0 1 225.001 58.584 Q 223.755 58.443 223.479 57.076 A 4.449 4.449 0 0 1 223.4 56.2 Q 223.4 55 224.2 52.6 A 18.225 18.225 0 0 1 224.566 51.645 Q 225.46 49.476 227.4 46 Q 229.8 41.7 233.2 37.8 A 58.493 58.493 0 0 0 233.398 37.575 Q 234.081 36.793 234.667 36.064 A 35.164 35.164 0 0 0 235.75 34.65 A 10.122 10.122 0 0 0 235.936 34.385 Q 236.8 33.107 236.8 32.2 A 1.143 1.143 0 0 0 236.305 31.228 Q 235.581 30.7 233.8 30.7 Q 232.8 30.7 231.85 30.75 Q 230.9 30.8 229.9 30.8 Q 228 30.8 226.2 30.7 L 222.6 30.5 Q 223.5 29.1 224.55 27.4 Q 225.6 25.7 226.5 24.3 Q 226.904 23.561 227.036 23.002 A 2.192 2.192 0 0 0 227.1 22.5 A 1.413 1.413 0 0 0 227.087 22.303 A 0.969 0.969 0 0 0 226.65 21.6 Q 226.2 21.3 225.7 21.3 A 2.439 2.439 0 0 0 225.037 21.391 A 2.688 2.688 0 0 0 224.2 21.8 A 23.777 23.777 0 0 0 223.939 22.104 Q 223.289 22.872 222.3 24.15 Q 221.1 25.7 219.7 27.1 Q 218.4 28.4 216.9 29.2 A 22.133 22.133 0 0 1 216.807 29.25 Q 216.105 29.62 215.448 29.901 A 13.556 13.556 0 0 1 214.1 30.4 A 0.833 0.833 0 0 0 214.05 30.412 Q 213.6 30.531 213.6 31.1 A 0.838 0.838 0 0 0 213.644 31.365 Q 213.733 31.633 214 31.9 A 1.855 1.855 0 0 0 214.099 31.991 Q 214.309 32.173 214.59 32.309 A 3.199 3.199 0 0 0 215.1 32.5 Q 215.513 32.569 216.114 32.614 A 23.652 23.652 0 0 0 216.7 32.65 A 66.891 66.891 0 0 0 217.142 32.671 Q 217.818 32.7 218.2 32.7 Q 214.3 40.2 208.9 46.8 Q 208.3 47.4 208.3 48 Q 208.3 48.466 208.663 48.57 A 0.864 0.864 0 0 0 208.9 48.6 Q 209.277 48.6 209.768 48.202 A 4.34 4.34 0 0 0 210.1 47.9 Q 213.1 44.2 215.75 40.35 Q 218.4 36.5 221.2 32.7 Q 222.3 32.7 223.35 32.85 Q 224.4 33 225.6 33.2 Q 227.7 33.5 228.5 34.25 A 3.739 3.739 0 0 1 228.694 34.445 Q 228.925 34.696 229.068 34.952 A 1.722 1.722 0 0 1 229.3 35.8 Q 229.3 36.633 228.869 37.466 A 5.565 5.565 0 0 1 228.25 38.4 Q 227.2 39.7 226.4 40.5 Q 224.9 42.2 222.8 44.65 Q 220.7 47.1 219.15 49.95 A 14.195 14.195 0 0 0 218.787 50.665 A 11.895 11.895 0 0 0 217.6 55.8 Q 217.6 56.9 217.9 58 A 7.359 7.359 0 0 0 218.12 58.751 Q 218.327 59.336 218.615 59.785 A 3.178 3.178 0 0 0 219.7 60.85 A 5.405 5.405 0 0 0 221.054 61.401 Z M 545.154 61.401 A 6.551 6.551 0 0 0 546.8 61.6 A 10.529 10.529 0 0 0 548.896 61.381 A 13.964 13.964 0 0 0 551.05 60.75 A 21.02 21.02 0 0 0 552.21 60.274 Q 553.656 59.627 554.6 58.9 A 41.342 41.342 0 0 0 556.807 57.191 A 52.411 52.411 0 0 0 559.7 54.6 A 65.75 65.75 0 0 0 560.969 53.347 A 57.567 57.567 0 0 0 564.4 49.55 A 91.828 91.828 0 0 0 564.585 49.326 Q 566.549 46.925 567.6 45.3 A 1.399 1.399 0 0 0 567.652 45.207 Q 567.809 44.892 567.715 44.64 A 0.634 0.634 0 0 0 567.6 44.45 Q 567.3 44.1 566.9 44.1 A 0.942 0.942 0 0 0 566.769 44.109 A 0.646 0.646 0 0 0 566.3 44.4 A 17.167 17.167 0 0 1 566.267 44.444 Q 565.362 45.643 563.3 47.95 A 69.742 69.742 0 0 1 561.655 49.727 A 84.229 84.229 0 0 1 558.6 52.75 A 51.11 51.11 0 0 1 556.275 54.816 A 38.972 38.972 0 0 1 553.55 56.9 Q 551.943 58.016 550.658 58.399 A 4.41 4.41 0 0 1 549.4 58.6 A 2.665 2.665 0 0 1 549.101 58.584 Q 547.855 58.443 547.579 57.076 A 4.449 4.449 0 0 1 547.5 56.2 Q 547.5 55 548.3 52.6 A 18.225 18.225 0 0 1 548.666 51.645 Q 549.56 49.476 551.5 46 Q 553.9 41.7 557.3 37.8 A 58.493 58.493 0 0 0 557.498 37.575 Q 558.181 36.793 558.767 36.064 A 35.164 35.164 0 0 0 559.85 34.65 A 10.122 10.122 0 0 0 560.036 34.385 Q 560.9 33.107 560.9 32.2 A 1.143 1.143 0 0 0 560.405 31.228 Q 559.681 30.7 557.9 30.7 Q 556.9 30.7 555.95 30.75 Q 555 30.8 554 30.8 Q 552.1 30.8 550.3 30.7 L 546.7 30.5 Q 547.6 29.1 548.65 27.4 Q 549.7 25.7 550.6 24.3 Q 551.004 23.561 551.136 23.002 A 2.192 2.192 0 0 0 551.2 22.5 A 1.413 1.413 0 0 0 551.187 22.303 A 0.969 0.969 0 0 0 550.75 21.6 Q 550.3 21.3 549.8 21.3 A 2.439 2.439 0 0 0 549.137 21.391 A 2.688 2.688 0 0 0 548.3 21.8 A 23.777 23.777 0 0 0 548.039 22.104 Q 547.389 22.872 546.4 24.15 Q 545.2 25.7 543.8 27.1 Q 542.5 28.4 541 29.2 A 22.133 22.133 0 0 1 540.907 29.25 Q 540.205 29.62 539.548 29.901 A 13.556 13.556 0 0 1 538.2 30.4 A 0.833 0.833 0 0 0 538.15 30.412 Q 537.7 30.531 537.7 31.1 A 0.838 0.838 0 0 0 537.744 31.365 Q 537.833 31.633 538.1 31.9 A 1.855 1.855 0 0 0 538.199 31.991 Q 538.409 32.173 538.69 32.309 A 3.199 3.199 0 0 0 539.2 32.5 Q 539.613 32.569 540.214 32.614 A 23.652 23.652 0 0 0 540.8 32.65 A 66.891 66.891 0 0 0 541.242 32.671 Q 541.918 32.7 542.3 32.7 Q 538.4 40.2 533 46.8 Q 532.4 47.4 532.4 48 Q 532.4 48.466 532.763 48.57 A 0.864 0.864 0 0 0 533 48.6 Q 533.377 48.6 533.868 48.202 A 4.34 4.34 0 0 0 534.2 47.9 Q 537.2 44.2 539.85 40.35 Q 542.5 36.5 545.3 32.7 Q 546.4 32.7 547.45 32.85 Q 548.5 33 549.7 33.2 Q 551.8 33.5 552.6 34.25 A 3.739 3.739 0 0 1 552.794 34.445 Q 553.025 34.696 553.168 34.952 A 1.722 1.722 0 0 1 553.4 35.8 Q 553.4 36.633 552.969 37.466 A 5.565 5.565 0 0 1 552.35 38.4 Q 551.3 39.7 550.5 40.5 Q 549 42.2 546.9 44.65 Q 544.8 47.1 543.25 49.95 A 14.195 14.195 0 0 0 542.887 50.665 A 11.895 11.895 0 0 0 541.7 55.8 Q 541.7 56.9 542 58 A 7.359 7.359 0 0 0 542.22 58.751 Q 542.427 59.336 542.715 59.785 A 3.178 3.178 0 0 0 543.8 60.85 A 5.405 5.405 0 0 0 545.154 61.401 Z M 155.349 61.252 A 13.155 13.155 0 0 0 157.4 61.4 Q 160.6 61.4 163.7 59.2 Q 166.2 57.3 168.9 54.75 A 85.448 85.448 0 0 0 170.539 53.161 A 72.576 72.576 0 0 0 173.8 49.7 Q 175.313 47.981 176.258 46.641 A 16.618 16.618 0 0 0 177 45.5 Q 177.164 45.173 177.164 44.905 A 0.749 0.749 0 0 0 177.05 44.5 A 1.113 1.113 0 0 0 176.942 44.353 A 0.696 0.696 0 0 0 176.4 44.1 A 0.629 0.629 0 0 0 176.202 44.133 Q 176.001 44.199 175.8 44.4 A 15.342 15.342 0 0 1 175.371 44.987 Q 174.736 45.816 173.719 46.969 A 80.549 80.549 0 0 1 172.7 48.1 A 85.663 85.663 0 0 1 170.98 49.921 A 104.46 104.46 0 0 1 167.8 53.05 A 45.779 45.779 0 0 1 165.615 54.99 A 36.16 36.16 0 0 1 162.45 57.35 Q 160.701 58.505 159.322 58.898 A 4.845 4.845 0 0 1 158 59.1 A 3.765 3.765 0 0 1 157.722 59.09 Q 156.041 58.965 155.3 57.3 A 8.963 8.963 0 0 1 154.67 55.185 A 12.186 12.186 0 0 1 154.5 53.1 L 154.5 52.05 Q 154.5 51.5 154.6 51 A 196.354 196.354 0 0 1 154.702 50.644 Q 154.882 50.019 155.15 49.1 A 75.408 75.408 0 0 0 155.156 49.081 Q 155.33 48.485 155.516 47.814 A 143.214 143.214 0 0 0 155.9 46.4 Q 165.3 38.7 173.75 29.7 Q 182.2 20.7 188.3 10.1 A 13.45 13.45 0 0 0 188.914 8.894 A 10.225 10.225 0 0 0 189.45 7.4 A 13.082 13.082 0 0 0 189.547 7.018 Q 189.8 5.951 189.8 5.1 A 6.256 6.256 0 0 0 189.684 3.86 A 4.032 4.032 0 0 0 188.15 1.35 A 5.958 5.958 0 0 0 186.276 0.393 A 7.082 7.082 0 0 0 184.2 0.1 A 13.345 13.345 0 0 0 183.778 0.107 A 11.117 11.117 0 0 0 178.1 1.8 Q 175.4 3.5 173.2 6 A 97.926 97.926 0 0 0 172.927 6.313 A 89.628 89.628 0 0 0 169.1 11 A 59.379 59.379 0 0 0 167.784 12.884 Q 167.09 13.915 166.327 15.123 A 139.553 139.553 0 0 0 164.65 17.85 Q 162.1 22.1 159.55 27.15 Q 157 32.2 154.8 37.3 Q 152.6 42.4 151.25 46.8 A 40.708 40.708 0 0 0 150.51 49.526 Q 150.212 50.808 150.06 51.929 A 16.205 16.205 0 0 0 149.9 54.1 A 10.292 10.292 0 0 0 150.02 55.698 A 7.639 7.639 0 0 0 151.55 59.3 A 4.788 4.788 0 0 0 153.474 60.732 Q 154.298 61.085 155.349 61.252 Z M 569.349 61.252 A 13.155 13.155 0 0 0 571.4 61.4 Q 574.6 61.4 577.7 59.2 Q 580.2 57.3 582.9 54.75 A 85.448 85.448 0 0 0 584.539 53.161 A 72.576 72.576 0 0 0 587.8 49.7 Q 589.313 47.981 590.258 46.641 A 16.618 16.618 0 0 0 591 45.5 Q 591.164 45.173 591.164 44.905 A 0.749 0.749 0 0 0 591.05 44.5 A 1.113 1.113 0 0 0 590.942 44.353 A 0.696 0.696 0 0 0 590.4 44.1 A 0.629 0.629 0 0 0 590.202 44.133 Q 590.001 44.199 589.8 44.4 A 15.342 15.342 0 0 1 589.371 44.987 Q 588.736 45.816 587.719 46.969 A 80.549 80.549 0 0 1 586.7 48.1 A 85.663 85.663 0 0 1 584.98 49.921 A 104.46 104.46 0 0 1 581.8 53.05 A 45.779 45.779 0 0 1 579.615 54.99 A 36.16 36.16 0 0 1 576.45 57.35 Q 574.701 58.505 573.322 58.898 A 4.845 4.845 0 0 1 572 59.1 A 3.765 3.765 0 0 1 571.722 59.09 Q 570.041 58.965 569.3 57.3 A 8.963 8.963 0 0 1 568.67 55.185 A 12.186 12.186 0 0 1 568.5 53.1 L 568.5 52.05 Q 568.5 51.5 568.6 51 A 196.354 196.354 0 0 1 568.702 50.644 Q 568.882 50.019 569.15 49.1 A 75.408 75.408 0 0 0 569.156 49.081 Q 569.33 48.485 569.516 47.814 A 143.214 143.214 0 0 0 569.9 46.4 Q 579.3 38.7 587.75 29.7 Q 596.2 20.7 602.3 10.1 A 13.45 13.45 0 0 0 602.914 8.894 A 10.225 10.225 0 0 0 603.45 7.4 A 13.082 13.082 0 0 0 603.547 7.018 Q 603.8 5.951 603.8 5.1 A 6.256 6.256 0 0 0 603.684 3.86 A 4.032 4.032 0 0 0 602.15 1.35 A 5.958 5.958 0 0 0 600.276 0.393 A 7.082 7.082 0 0 0 598.2 0.1 A 13.345 13.345 0 0 0 597.778 0.107 A 11.117 11.117 0 0 0 592.1 1.8 Q 589.4 3.5 587.2 6 A 97.926 97.926 0 0 0 586.927 6.313 A 89.628 89.628 0 0 0 583.1 11 A 59.379 59.379 0 0 0 581.784 12.884 Q 581.09 13.915 580.327 15.123 A 139.553 139.553 0 0 0 578.65 17.85 Q 576.1 22.1 573.55 27.15 Q 571 32.2 568.8 37.3 Q 566.6 42.4 565.25 46.8 A 40.708 40.708 0 0 0 564.51 49.526 Q 564.212 50.808 564.06 51.929 A 16.205 16.205 0 0 0 563.9 54.1 A 10.292 10.292 0 0 0 564.02 55.698 A 7.639 7.639 0 0 0 565.55 59.3 A 4.788 4.788 0 0 0 567.474 60.732 Q 568.298 61.085 569.349 61.252 Z M 182.2 61.5 Q 179.4 61.5 177.3 60.2 A 6.753 6.753 0 0 1 174.293 56.247 Q 173.923 55.059 173.831 53.601 A 15.849 15.849 0 0 1 173.8 52.6 A 16.154 16.154 0 0 1 173.952 50.464 Q 174.094 49.407 174.367 48.235 A 30.39 30.39 0 0 1 174.6 47.3 A 17.337 17.337 0 0 1 175.423 45.026 Q 175.922 43.889 176.616 42.671 A 31.965 31.965 0 0 1 177.1 41.85 A 37.369 37.369 0 0 1 181.312 36.242 A 40.699 40.699 0 0 1 181.35 36.2 Q 183.8 33.5 186.7 31.8 A 13 13 0 0 1 189.51 30.552 A 10.29 10.29 0 0 1 192.5 30.1 A 8.152 8.152 0 0 1 193.493 30.157 Q 194.019 30.222 194.472 30.359 A 4.846 4.846 0 0 1 194.6 30.4 A 4.355 4.355 0 0 1 196.543 31.721 A 5.257 5.257 0 0 1 196.65 31.85 A 3.754 3.754 0 0 1 197.421 33.576 A 5.19 5.19 0 0 1 197.5 34.5 A 5.148 5.148 0 0 1 197.465 35.129 Q 197.328 36.241 196.65 36.4 Q 195.913 36.574 195.815 36.144 A 0.654 0.654 0 0 1 195.8 36 Q 195.8 35.8 195.85 35.6 Q 195.89 35.442 195.898 35.346 A 0.541 0.541 0 0 0 195.9 35.3 Q 195.9 34.5 195.45 33.85 Q 195 33.2 193.8 33.2 A 3.95 3.95 0 0 0 192.641 33.392 Q 191.411 33.771 189.85 34.9 A 22.886 22.886 0 0 0 187.775 36.608 Q 186.765 37.537 185.737 38.671 A 39.766 39.766 0 0 0 185.05 39.45 Q 182.6 42.3 180.75 45.7 A 23.882 23.882 0 0 0 178.926 49.95 A 20.212 20.212 0 0 0 178.3 52.5 A 11.884 11.884 0 0 0 178.195 53.105 A 9.937 9.937 0 0 0 178.15 53.45 Q 178.1 53.9 178.1 54.4 Q 178.1 56.7 179.15 58.25 A 3.389 3.389 0 0 0 181.306 59.677 A 5.472 5.472 0 0 0 182.5 59.8 A 7.613 7.613 0 0 0 186.152 58.841 A 10.759 10.759 0 0 0 187.9 57.65 A 24.359 24.359 0 0 0 192.013 53.259 A 27.709 27.709 0 0 0 192.55 52.5 A 46.416 46.416 0 0 0 193.94 50.348 Q 194.571 49.306 195.05 48.365 A 21.419 21.419 0 0 0 195.6 47.2 Q 196.176 45.904 196.493 44.868 A 11.426 11.426 0 0 0 196.7 44.1 A 14.544 14.544 0 0 0 196.877 43.217 Q 196.947 42.801 196.977 42.436 A 6.489 6.489 0 0 0 197 41.9 A 7.227 7.227 0 0 0 196.972 41.238 Q 196.942 40.913 196.88 40.629 A 4.106 4.106 0 0 0 196.85 40.5 Q 196.736 40.041 196.591 39.698 A 3.369 3.369 0 0 0 196.5 39.5 Q 196.344 39.032 196.31 38.746 A 1.235 1.235 0 0 1 196.3 38.6 A 1.545 1.545 0 0 1 196.807 37.421 A 1.981 1.981 0 0 1 196.95 37.3 A 2.611 2.611 0 0 1 197.508 36.967 A 1.986 1.986 0 0 1 198.3 36.8 Q 198.9 36.8 199.6 37.2 Q 200.323 37.381 201.535 37.48 A 25.991 25.991 0 0 0 201.8 37.5 A 39.22 39.22 0 0 0 203.629 37.586 A 47.689 47.689 0 0 0 204.8 37.6 Q 206.5 37.6 208.25 37.5 Q 209.754 37.414 210.925 37.181 A 12.793 12.793 0 0 0 211.3 37.1 A 0.746 0.746 0 0 1 211.445 37.047 Q 211.625 37 211.9 37 A 1.83 1.83 0 0 1 212.138 37.014 Q 212.394 37.048 212.508 37.162 A 0.322 0.322 0 0 1 212.6 37.4 Q 212.6 37.754 212.053 38.029 A 2.743 2.743 0 0 1 211.9 38.1 A 23.231 23.231 0 0 1 209.393 39.085 Q 208.132 39.493 206.985 39.67 A 11.457 11.457 0 0 1 205.65 39.8 A 177.8 177.8 0 0 1 203.693 39.861 Q 202.922 39.88 202.224 39.89 A 94.839 94.839 0 0 1 200.9 39.9 Q 201.023 41.435 200.58 43.102 A 13.596 13.596 0 0 1 199.8 45.25 Q 198.5 48.1 197.1 50.3 A 57.27 57.27 0 0 1 194.78 53.464 A 68.474 68.474 0 0 1 193.2 55.4 A 22.411 22.411 0 0 1 188.636 59.528 A 21.044 21.044 0 0 1 188.3 59.75 Q 185.6 61.5 182.2 61.5 Z M 506.3 61.5 Q 503.5 61.5 501.4 60.2 A 6.753 6.753 0 0 1 498.393 56.247 Q 498.023 55.059 497.931 53.601 A 15.849 15.849 0 0 1 497.9 52.6 A 16.154 16.154 0 0 1 498.052 50.464 Q 498.194 49.407 498.467 48.235 A 30.39 30.39 0 0 1 498.7 47.3 A 17.337 17.337 0 0 1 499.523 45.026 Q 500.022 43.889 500.716 42.671 A 31.965 31.965 0 0 1 501.2 41.85 A 37.369 37.369 0 0 1 505.412 36.242 A 40.699 40.699 0 0 1 505.45 36.2 Q 507.9 33.5 510.8 31.8 A 13 13 0 0 1 513.61 30.552 A 10.29 10.29 0 0 1 516.6 30.1 A 8.152 8.152 0 0 1 517.593 30.157 Q 518.119 30.222 518.572 30.359 A 4.846 4.846 0 0 1 518.7 30.4 A 4.355 4.355 0 0 1 520.643 31.721 A 5.257 5.257 0 0 1 520.75 31.85 A 3.754 3.754 0 0 1 521.521 33.576 A 5.19 5.19 0 0 1 521.6 34.5 A 5.148 5.148 0 0 1 521.565 35.129 Q 521.428 36.241 520.75 36.4 Q 520.013 36.574 519.915 36.144 A 0.654 0.654 0 0 1 519.9 36 Q 519.9 35.8 519.95 35.6 Q 519.99 35.442 519.998 35.346 A 0.541 0.541 0 0 0 520 35.3 Q 520 34.5 519.55 33.85 Q 519.1 33.2 517.9 33.2 A 3.95 3.95 0 0 0 516.741 33.392 Q 515.511 33.771 513.95 34.9 A 22.886 22.886 0 0 0 511.875 36.608 Q 510.865 37.537 509.837 38.671 A 39.766 39.766 0 0 0 509.15 39.45 Q 506.7 42.3 504.85 45.7 A 23.882 23.882 0 0 0 503.026 49.95 A 20.212 20.212 0 0 0 502.4 52.5 A 11.884 11.884 0 0 0 502.295 53.105 A 9.937 9.937 0 0 0 502.25 53.45 Q 502.2 53.9 502.2 54.4 Q 502.2 56.7 503.25 58.25 A 3.389 3.389 0 0 0 505.406 59.677 A 5.472 5.472 0 0 0 506.6 59.8 A 7.613 7.613 0 0 0 510.252 58.841 A 10.759 10.759 0 0 0 512 57.65 A 24.359 24.359 0 0 0 516.113 53.259 A 27.709 27.709 0 0 0 516.65 52.5 A 46.416 46.416 0 0 0 518.04 50.348 Q 518.671 49.306 519.15 48.365 A 21.419 21.419 0 0 0 519.7 47.2 Q 520.276 45.904 520.593 44.868 A 11.426 11.426 0 0 0 520.8 44.1 A 14.544 14.544 0 0 0 520.977 43.217 Q 521.047 42.801 521.077 42.436 A 6.489 6.489 0 0 0 521.1 41.9 A 7.227 7.227 0 0 0 521.072 41.238 Q 521.042 40.913 520.98 40.629 A 4.106 4.106 0 0 0 520.95 40.5 Q 520.836 40.041 520.691 39.698 A 3.369 3.369 0 0 0 520.6 39.5 Q 520.444 39.032 520.41 38.746 A 1.235 1.235 0 0 1 520.4 38.6 A 1.545 1.545 0 0 1 520.907 37.421 A 1.981 1.981 0 0 1 521.05 37.3 A 2.611 2.611 0 0 1 521.608 36.967 A 1.986 1.986 0 0 1 522.4 36.8 Q 523 36.8 523.7 37.2 Q 524.423 37.381 525.635 37.48 A 25.991 25.991 0 0 0 525.9 37.5 A 39.22 39.22 0 0 0 527.729 37.586 A 47.689 47.689 0 0 0 528.9 37.6 Q 530.6 37.6 532.35 37.5 Q 533.854 37.414 535.025 37.181 A 12.793 12.793 0 0 0 535.4 37.1 A 0.746 0.746 0 0 1 535.545 37.047 Q 535.725 37 536 37 A 1.83 1.83 0 0 1 536.238 37.014 Q 536.494 37.048 536.608 37.162 A 0.322 0.322 0 0 1 536.7 37.4 Q 536.7 37.754 536.153 38.029 A 2.743 2.743 0 0 1 536 38.1 A 23.231 23.231 0 0 1 533.493 39.085 Q 532.232 39.493 531.085 39.67 A 11.457 11.457 0 0 1 529.75 39.8 A 177.8 177.8 0 0 1 527.793 39.861 Q 527.022 39.88 526.324 39.89 A 94.839 94.839 0 0 1 525 39.9 Q 525.123 41.435 524.68 43.102 A 13.596 13.596 0 0 1 523.9 45.25 Q 522.6 48.1 521.2 50.3 A 57.27 57.27 0 0 1 518.88 53.464 A 68.474 68.474 0 0 1 517.3 55.4 A 22.411 22.411 0 0 1 512.736 59.528 A 21.044 21.044 0 0 1 512.4 59.75 Q 509.7 61.5 506.3 61.5 Z M 309.44 63.09 A 1.625 1.625 0 0 0 309.6 63.1 A 2.906 2.906 0 0 0 310.344 63.003 Q 310.909 62.854 311.457 62.476 A 5.553 5.553 0 0 0 312.3 61.75 A 20.645 20.645 0 0 0 312.943 61.05 A 23.591 23.591 0 0 0 314.75 58.7 Q 315.541 57.531 316.166 56.693 A 26.111 26.111 0 0 1 316.7 56 Q 316.8 55.9 317.4 55.1 A 5.38 5.38 0 0 0 317.448 55.035 Q 318 54.276 318 53.7 A 0.703 0.703 0 0 0 317.997 53.634 Q 317.983 53.483 317.9 53.4 Q 317.2 53.2 316.3 54.35 Q 315.4 55.5 314.3 56.8 A 9.08 9.08 0 0 1 313.989 57.138 A 7.843 7.843 0 0 1 312.8 58.15 A 4.297 4.297 0 0 1 312.538 58.317 Q 311.884 58.7 311.3 58.7 A 1.386 1.386 0 0 1 311.26 58.699 Q 310.3 58.671 310.3 57.3 Q 310.3 56.8 310.5 56 A 9.939 9.939 0 0 1 310.561 55.771 Q 310.657 55.422 310.789 55.037 A 17.7 17.7 0 0 1 311.1 54.2 A 100.952 100.952 0 0 1 311.613 53.042 Q 312.522 51.021 313.9 48.15 Q 315.7 44.4 318.1 39.95 Q 320.5 35.5 323.25 31.1 Q 326 26.7 328.85 23 Q 331.7 19.3 334.4 17.1 A 13.858 13.858 0 0 1 335.741 16.128 Q 337.682 14.9 339.4 14.9 Q 339.9 14.9 340.6 15.4 Q 340.723 14.421 340.321 13.667 A 2.913 2.913 0 0 0 339.6 12.8 Q 338.4 11.8 336.9 11.35 Q 335.772 11.012 335.153 10.928 A 2.679 2.679 0 0 0 334.8 10.9 Q 333.582 10.9 332.307 11.401 A 10.033 10.033 0 0 0 330.65 12.25 Q 328.5 13.6 326.6 15.6 A 32.112 32.112 0 0 0 325.234 17.131 A 25.776 25.776 0 0 0 323.4 19.6 A 20.455 20.455 0 0 0 323.002 20.237 Q 322.4 21.243 322.116 22.017 A 4.407 4.407 0 0 0 321.9 22.8 A 1.593 1.593 0 0 1 321.973 22.971 A 1.937 1.937 0 0 1 322.05 23.25 A 1.691 1.691 0 0 1 322.067 23.35 Q 322.1 23.592 322.1 24 A 3.216 3.216 0 0 1 322.096 24.166 Q 322.059 24.886 321.705 25.844 A 12.15 12.15 0 0 1 321.3 26.8 A 70.981 70.981 0 0 1 320.824 27.734 Q 319.955 29.409 318.5 32.05 Q 316.6 35.5 314.35 39.8 Q 312.1 44.1 310.05 48.4 Q 308 52.7 306.75 56.25 Q 305.667 59.328 305.748 61.165 A 4.789 4.789 0 0 0 305.8 61.7 A 0.569 0.569 0 0 0 305.911 61.916 Q 306.06 62.103 306.384 62.264 A 3.363 3.363 0 0 0 306.7 62.4 A 11.564 11.564 0 0 0 307.004 62.509 A 12.93 12.93 0 0 0 308.4 62.9 A 21.504 21.504 0 0 0 308.71 62.967 Q 309.182 63.064 309.44 63.09 Z M 157.3 42.4 A 45.58 45.58 0 0 0 161.052 39.518 Q 162.832 38.006 164.673 36.179 A 76.022 76.022 0 0 0 165.2 35.65 A 117.63 117.63 0 0 0 171.764 28.411 A 131.943 131.943 0 0 0 173.25 26.6 A 149.765 149.765 0 0 0 178.782 19.306 A 132.371 132.371 0 0 0 180.45 16.9 A 109.729 109.729 0 0 0 182.712 13.427 Q 183.907 11.509 184.871 9.758 A 59.947 59.947 0 0 0 185.7 8.2 A 14.008 14.008 0 0 0 186.101 7.41 Q 186.394 6.781 186.55 6.25 A 6.779 6.779 0 0 0 186.721 5.535 Q 186.79 5.152 186.799 4.805 A 4.016 4.016 0 0 0 186.8 4.7 Q 186.8 2.8 185.2 2.8 Q 183.968 2.8 182.193 3.962 A 14.787 14.787 0 0 0 181.7 4.3 A 45.139 45.139 0 0 0 175.416 10.291 A 57.535 57.535 0 0 0 171.7 15.05 Q 167.1 21.6 163.5 28.8 A 213.293 213.293 0 0 0 159.767 36.647 A 169.455 169.455 0 0 0 157.3 42.4 Z M 571.3 42.4 A 45.58 45.58 0 0 0 575.052 39.518 Q 576.832 38.006 578.673 36.179 A 76.022 76.022 0 0 0 579.2 35.65 A 117.63 117.63 0 0 0 585.764 28.411 A 131.943 131.943 0 0 0 587.25 26.6 A 149.765 149.765 0 0 0 592.782 19.306 A 132.371 132.371 0 0 0 594.45 16.9 A 109.729 109.729 0 0 0 596.712 13.427 Q 597.907 11.509 598.871 9.758 A 59.947 59.947 0 0 0 599.7 8.2 A 14.008 14.008 0 0 0 600.101 7.41 Q 600.394 6.781 600.55 6.25 A 6.779 6.779 0 0 0 600.721 5.535 Q 600.79 5.152 600.799 4.805 A 4.016 4.016 0 0 0 600.8 4.7 Q 600.8 2.8 599.2 2.8 Q 597.968 2.8 596.193 3.962 A 14.787 14.787 0 0 0 595.7 4.3 A 45.139 45.139 0 0 0 589.416 10.291 A 57.535 57.535 0 0 0 585.7 15.05 Q 581.1 21.6 577.5 28.8 A 213.293 213.293 0 0 0 573.767 36.647 A 169.455 169.455 0 0 0 571.3 42.4 Z M 590.6 57.9 A 1.596 1.596 0 0 0 591.753 58.495 A 2.027 2.027 0 0 0 591.9 58.5 A 4.374 4.374 0 0 0 593.089 58.321 Q 594.161 58.018 595.45 57.2 Q 597.466 55.922 598.177 55.223 A 3.829 3.829 0 0 0 598.2 55.2 A 197.089 197.089 0 0 0 607.164 47.527 A 218.34 218.34 0 0 0 608.45 46.35 A 189.264 189.264 0 0 0 616.965 37.999 A 172.293 172.293 0 0 0 618.1 36.8 Q 618.5 35.9 618.8 35.05 Q 619.1 34.2 619.5 33.4 A 8.082 8.082 0 0 0 617.766 32.932 Q 616.938 32.8 616 32.8 Q 612.674 32.8 608.795 34.598 A 28.595 28.595 0 0 0 607.2 35.4 A 42.604 42.604 0 0 0 598.839 41.282 A 39.904 39.904 0 0 0 598.6 41.5 Q 597.4 42.5 595.35 44.95 Q 593.3 47.4 591.6 50.3 Q 590.354 52.427 590.021 54.285 A 7.463 7.463 0 0 0 589.9 55.6 A 4.095 4.095 0 0 0 590.16 57.073 A 3.804 3.804 0 0 0 590.6 57.9 Z M 360.2 32.5 A 76.455 76.455 0 0 0 363.834 29.879 Q 365.651 28.491 367.592 26.862 A 129.652 129.652 0 0 0 368.9 25.75 Q 373.6 21.7 377.75 17.05 Q 381.9 12.4 384.1 8.2 A 15.703 15.703 0 0 0 384.68 6.97 Q 385.222 5.667 385.29 4.679 A 4.037 4.037 0 0 0 385.3 4.4 A 2.805 2.805 0 0 0 385.234 3.758 Q 384.984 2.7 383.8 2.7 Q 383.1 2.7 382.2 3.05 Q 381.589 3.288 380.838 3.78 A 14.344 14.344 0 0 0 380.1 4.3 Q 373.4 9.5 368.8 16.65 Q 364.2 23.8 360.2 32.5 Z M 624.8 32.5 A 76.455 76.455 0 0 0 628.434 29.879 Q 630.251 28.491 632.192 26.862 A 129.652 129.652 0 0 0 633.5 25.75 Q 638.2 21.7 642.3 17.05 A 57.614 57.614 0 0 0 645.473 13.137 Q 646.936 11.151 648.022 9.255 A 32.081 32.081 0 0 0 648.6 8.2 Q 649.677 6.213 649.862 4.912 A 3.638 3.638 0 0 0 649.9 4.4 A 2.805 2.805 0 0 0 649.834 3.758 Q 649.584 2.7 648.4 2.7 A 3.387 3.387 0 0 0 647.451 2.852 Q 646.291 3.194 644.7 4.3 Q 638 9.5 633.4 16.65 Q 628.8 23.8 624.8 32.5 Z M 114.2 59.3 A 15.291 15.291 0 0 0 118.106 58.771 A 20.127 20.127 0 0 0 120.9 57.8 A 33.427 33.427 0 0 0 125.987 55.058 A 39.277 39.277 0 0 0 127.8 53.8 Q 131.2 51.3 133.95 48.35 A 41.951 41.951 0 0 0 136.403 45.482 A 30.667 30.667 0 0 0 138.4 42.6 A 16.256 16.256 0 0 0 139.539 40.459 Q 140.4 38.472 140.4 36.7 A 5.178 5.178 0 0 0 140.28 35.53 Q 139.909 33.936 138.392 33.659 A 3.843 3.843 0 0 0 137.7 33.6 A 4.968 4.968 0 0 0 137.133 33.635 Q 136.848 33.668 136.525 33.732 A 10.85 10.85 0 0 0 136 33.85 A 7.25 7.25 0 0 0 135.208 34.101 Q 134.513 34.363 133.7 34.8 A 35.674 35.674 0 0 0 128.74 37.94 A 27.586 27.586 0 0 0 125 41.35 Q 121.6 45.1 119.2 49.6 Q 116.8 54.1 114.2 59.3 Z" vector-effect="non-scaling-stroke"/></g></svg>